# xmcd CD database file
#
# Track frame offsets:
#	150
#	10800
#	24100
#	36523
#	47338
#	60750
#	74742
#	91121
#	106795
#	118924
#	135781
#	152085
#	166850
#	182993
#	199748
#	215573
#	230689
#	249738
#	273661
#	293070
#	313616
#	331529
#
# Disc length: 4614 seconds
#
# Revision: 2
# Processed by: cddbd v1.5.2PL0 Copyright (c) Steve Scherf et al.
# Submitted via: CDex 1.70beta2
#
DISCID=2b120416
DTITLE=Ronnie Milsap - Ultimate Ronnie Milsap
DYEAR=2004
DGENRE=Country
TTITLE0=Pure Love
TTITLE1=(I'd Be) A Legend In My Time
TTITLE2=Please Don't Tell Me How The Story Ends
TTITLE3=Daydreams About Night Things
TTITLE4=(I'm A) Stand By My Woman Man
TTITLE5=Let My Love Be Your Pillow
TTITLE6=It Was Almost Like A Song
TTITLE7=Only One Love In My Life
TTITLE8=My Heart
TTITLE9=Smoky Mountain Rain
TTITLE10=Am I Losing You
TTITLE11=(There's) No Gettin' Over Me
TTITLE12=I Wouldn't Have Missed It For The World
TTITLE13=Any Day Now
TTITLE14=He Got You
TTITLE15=Don't You Know How Much I Love You
TTITLE16=Stranger In My House
TTITLE17=Still Losing You
TTITLE18=Lost In The Fifties Tonight (In The Still Of The Night)
TTITLE19=In Love
TTITLE20=Make No Mistake, She's Mine (With Kenny Rogers)
TTITLE21=A Woman In Love
EXTD=YEAR: 2004
EXTT0=
EXTT1=
EXTT2=
EXTT3=
EXTT4=
EXTT5=
EXTT6=
EXTT7=
EXTT8=
EXTT9=
EXTT10=
EXTT11=
EXTT12=
EXTT13=
EXTT14=
EXTT15=
EXTT16=
EXTT17=
EXTT18=
EXTT19=
EXTT20=
EXTT21=
PLAYORDER=
